<mxfile host="Electron" modified="2023-12-16T23:11:29.334Z" agent="Mozilla/5.0 (Windows NT 10.0; Win64; x64) AppleWebKit/537.36 (KHTML, like Gecko) draw.io/22.1.2 Chrome/114.0.5735.289 Electron/25.9.4 Safari/537.36" etag="HxWtL9Xh-TEEFu67wU5J" version="22.1.2" type="device">
  <diagram name="Page-1" id="KypT_-K38rJA4_02M7jG">
    <mxGraphModel dx="2580" dy="890" grid="1" gridSize="10" guides="1" tooltips="1" connect="1" arrows="1" fold="1" page="1" pageScale="1" pageWidth="1100" pageHeight="850" math="0" shadow="0">
      <root>
        <mxCell id="0" />
        <mxCell id="1" parent="0" />
        <mxCell id="e3ec-eq9dA1Ml-wuRT6C-5" value="" style="edgeStyle=orthogonalEdgeStyle;rounded=1;orthogonalLoop=1;jettySize=auto;html=1;labelBorderColor=none;shadow=1;exitX=0.5;exitY=1;exitDx=0;exitDy=0;entryX=0.5;entryY=0;entryDx=0;entryDy=0;" parent="1" source="ll4WmkZaG97imKkFr46g-4" target="e3ec-eq9dA1Ml-wuRT6C-4" edge="1">
          <mxGeometry relative="1" as="geometry">
            <Array as="points">
              <mxPoint x="590" y="240" />
              <mxPoint x="935" y="240" />
            </Array>
          </mxGeometry>
        </mxCell>
        <mxCell id="e3ec-eq9dA1Ml-wuRT6C-9" value="" style="edgeStyle=orthogonalEdgeStyle;rounded=1;orthogonalLoop=1;jettySize=auto;html=1;labelBorderColor=none;shadow=1;exitX=0.5;exitY=1;exitDx=0;exitDy=0;" parent="1" source="ll4WmkZaG97imKkFr46g-4" target="e3ec-eq9dA1Ml-wuRT6C-6" edge="1">
          <mxGeometry relative="1" as="geometry">
            <Array as="points">
              <mxPoint x="590" y="240" />
              <mxPoint x="360" y="240" />
            </Array>
          </mxGeometry>
        </mxCell>
        <mxCell id="e3ec-eq9dA1Ml-wuRT6C-12" value="" style="edgeStyle=orthogonalEdgeStyle;rounded=1;orthogonalLoop=1;jettySize=auto;html=1;labelBorderColor=none;entryX=0.5;entryY=0;entryDx=0;entryDy=0;" parent="1" source="e3ec-eq9dA1Ml-wuRT6C-3" target="e3ec-eq9dA1Ml-wuRT6C-10" edge="1">
          <mxGeometry relative="1" as="geometry">
            <Array as="points">
              <mxPoint x="590" y="240" />
              <mxPoint x="570" y="240" />
            </Array>
          </mxGeometry>
        </mxCell>
        <mxCell id="e3ec-eq9dA1Ml-wuRT6C-14" value="" style="edgeStyle=orthogonalEdgeStyle;rounded=1;orthogonalLoop=1;jettySize=auto;html=1;labelBorderColor=none;entryX=0.5;entryY=0;entryDx=0;entryDy=0;" parent="1" source="e3ec-eq9dA1Ml-wuRT6C-3" target="e3ec-eq9dA1Ml-wuRT6C-13" edge="1">
          <mxGeometry relative="1" as="geometry">
            <Array as="points">
              <mxPoint x="590" y="240" />
              <mxPoint x="750" y="240" />
            </Array>
          </mxGeometry>
        </mxCell>
        <mxCell id="ll4WmkZaG97imKkFr46g-19" value="" style="edgeStyle=orthogonalEdgeStyle;rounded=1;orthogonalLoop=1;jettySize=auto;html=1;labelBorderColor=none;" parent="1" source="e3ec-eq9dA1Ml-wuRT6C-3" target="ll4WmkZaG97imKkFr46g-18" edge="1">
          <mxGeometry relative="1" as="geometry" />
        </mxCell>
        <mxCell id="ll4WmkZaG97imKkFr46g-20" value="" style="edgeStyle=orthogonalEdgeStyle;rounded=1;orthogonalLoop=1;jettySize=auto;html=1;labelBorderColor=none;" parent="1" source="e3ec-eq9dA1Ml-wuRT6C-3" target="ll4WmkZaG97imKkFr46g-18" edge="1">
          <mxGeometry relative="1" as="geometry" />
        </mxCell>
        <mxCell id="ll4WmkZaG97imKkFr46g-24" style="edgeStyle=orthogonalEdgeStyle;rounded=1;orthogonalLoop=1;jettySize=auto;html=1;exitX=0;exitY=0.25;exitDx=0;exitDy=0;entryX=0.5;entryY=1;entryDx=0;entryDy=0;labelBorderColor=none;" parent="1" source="e3ec-eq9dA1Ml-wuRT6C-3" target="ll4WmkZaG97imKkFr46g-21" edge="1">
          <mxGeometry relative="1" as="geometry" />
        </mxCell>
        <mxCell id="ll4WmkZaG97imKkFr46g-26" style="edgeStyle=orthogonalEdgeStyle;rounded=1;orthogonalLoop=1;jettySize=auto;html=1;exitX=1;exitY=0.25;exitDx=0;exitDy=0;entryX=0.5;entryY=1;entryDx=0;entryDy=0;labelBorderColor=none;" parent="1" source="e3ec-eq9dA1Ml-wuRT6C-3" target="ll4WmkZaG97imKkFr46g-23" edge="1">
          <mxGeometry relative="1" as="geometry" />
        </mxCell>
        <mxCell id="ll4WmkZaG97imKkFr46g-29" value="" style="edgeStyle=orthogonalEdgeStyle;rounded=1;orthogonalLoop=1;jettySize=auto;html=1;entryX=0;entryY=0.5;entryDx=0;entryDy=0;labelBorderColor=none;" parent="1" source="e3ec-eq9dA1Ml-wuRT6C-3" target="ll4WmkZaG97imKkFr46g-30" edge="1">
          <mxGeometry relative="1" as="geometry">
            <mxPoint x="750" y="130" as="targetPoint" />
          </mxGeometry>
        </mxCell>
        <mxCell id="ll4WmkZaG97imKkFr46g-31" style="edgeStyle=orthogonalEdgeStyle;rounded=1;orthogonalLoop=1;jettySize=auto;html=1;exitX=0.5;exitY=0;exitDx=0;exitDy=0;entryX=0.5;entryY=1;entryDx=0;entryDy=0;labelBorderColor=none;" parent="1" source="e3ec-eq9dA1Ml-wuRT6C-3" target="ll4WmkZaG97imKkFr46g-27" edge="1">
          <mxGeometry relative="1" as="geometry">
            <Array as="points">
              <mxPoint x="590" y="95" />
              <mxPoint x="550" y="95" />
            </Array>
          </mxGeometry>
        </mxCell>
        <mxCell id="ll4WmkZaG97imKkFr46g-36" style="edgeStyle=orthogonalEdgeStyle;rounded=1;orthogonalLoop=1;jettySize=auto;html=1;exitX=0.75;exitY=0;exitDx=0;exitDy=0;entryX=0.5;entryY=1;entryDx=0;entryDy=0;labelBorderColor=none;" parent="1" source="e3ec-eq9dA1Ml-wuRT6C-3" target="ll4WmkZaG97imKkFr46g-32" edge="1">
          <mxGeometry relative="1" as="geometry">
            <Array as="points">
              <mxPoint x="620" y="95" />
              <mxPoint x="665" y="95" />
            </Array>
          </mxGeometry>
        </mxCell>
        <mxCell id="ll4WmkZaG97imKkFr46g-79" style="edgeStyle=orthogonalEdgeStyle;rounded=0;orthogonalLoop=1;jettySize=auto;html=1;exitX=0.5;exitY=0;exitDx=0;exitDy=0;entryX=0.5;entryY=1;entryDx=0;entryDy=0;" parent="1" source="e3ec-eq9dA1Ml-wuRT6C-3" target="ll4WmkZaG97imKkFr46g-80" edge="1">
          <mxGeometry relative="1" as="geometry">
            <mxPoint x="589.6470588235293" y="5" as="targetPoint" />
          </mxGeometry>
        </mxCell>
        <mxCell id="e3ec-eq9dA1Ml-wuRT6C-3" value="&lt;h1&gt;&lt;b&gt;&lt;font face=&quot;source code pro&quot;&gt;Person&lt;/font&gt;&lt;/b&gt;&lt;/h1&gt;" style="rounded=1;whiteSpace=wrap;html=1;fontFamily=Verdana;labelBorderColor=none;shadow=1;" parent="1" vertex="1">
          <mxGeometry x="530" y="100" width="120" height="60" as="geometry" />
        </mxCell>
        <mxCell id="ll4WmkZaG97imKkFr46g-82" style="edgeStyle=orthogonalEdgeStyle;rounded=1;orthogonalLoop=1;jettySize=auto;html=1;exitX=0.5;exitY=1;exitDx=0;exitDy=0;entryX=1;entryY=0.5;entryDx=0;entryDy=0;" parent="1" source="e3ec-eq9dA1Ml-wuRT6C-4" target="ll4WmkZaG97imKkFr46g-81" edge="1">
          <mxGeometry relative="1" as="geometry" />
        </mxCell>
        <mxCell id="e3ec-eq9dA1Ml-wuRT6C-4" value="&lt;h1&gt;&lt;font face=&quot;source code pro&quot;&gt;Ward Boy&lt;/font&gt;&lt;/h1&gt;" style="whiteSpace=wrap;html=1;fontFamily=Verdana;rounded=1;labelBorderColor=none;shadow=1;" parent="1" vertex="1">
          <mxGeometry x="860" y="300" width="150" height="60" as="geometry" />
        </mxCell>
        <mxCell id="ll4WmkZaG97imKkFr46g-38" value="" style="edgeStyle=orthogonalEdgeStyle;rounded=1;orthogonalLoop=1;jettySize=auto;html=1;labelBorderColor=none;" parent="1" source="e3ec-eq9dA1Ml-wuRT6C-6" target="ll4WmkZaG97imKkFr46g-37" edge="1">
          <mxGeometry relative="1" as="geometry" />
        </mxCell>
        <mxCell id="ll4WmkZaG97imKkFr46g-42" style="edgeStyle=orthogonalEdgeStyle;rounded=1;hachureGap=4;orthogonalLoop=1;jettySize=auto;html=1;exitX=0.25;exitY=1;exitDx=0;exitDy=0;entryX=1;entryY=0.5;entryDx=0;entryDy=0;fontFamily=Architects Daughter;fontSource=https%3A%2F%2Ffonts.googleapis.com%2Fcss%3Ffamily%3DArchitects%2BDaughter;fontSize=16;" parent="1" source="e3ec-eq9dA1Ml-wuRT6C-6" target="ll4WmkZaG97imKkFr46g-41" edge="1">
          <mxGeometry relative="1" as="geometry" />
        </mxCell>
        <mxCell id="ll4WmkZaG97imKkFr46g-43" style="edgeStyle=orthogonalEdgeStyle;rounded=1;hachureGap=4;orthogonalLoop=1;jettySize=auto;html=1;exitX=0;exitY=0.75;exitDx=0;exitDy=0;entryX=1;entryY=0.5;entryDx=0;entryDy=0;fontFamily=Architects Daughter;fontSource=https%3A%2F%2Ffonts.googleapis.com%2Fcss%3Ffamily%3DArchitects%2BDaughter;fontSize=16;" parent="1" source="e3ec-eq9dA1Ml-wuRT6C-6" target="ll4WmkZaG97imKkFr46g-39" edge="1">
          <mxGeometry relative="1" as="geometry">
            <Array as="points">
              <mxPoint x="300" y="388" />
            </Array>
          </mxGeometry>
        </mxCell>
        <mxCell id="ll4WmkZaG97imKkFr46g-105" style="edgeStyle=orthogonalEdgeStyle;rounded=1;orthogonalLoop=1;jettySize=auto;html=1;exitX=0.25;exitY=0;exitDx=0;exitDy=0;entryX=0.5;entryY=1;entryDx=0;entryDy=0;" parent="1" edge="1">
          <mxGeometry relative="1" as="geometry">
            <mxPoint x="330" y="294.99999999999994" as="sourcePoint" />
            <mxPoint x="360" y="620" as="targetPoint" />
            <Array as="points">
              <mxPoint x="330" y="275" />
              <mxPoint x="50" y="275" />
              <mxPoint x="50" y="795" />
              <mxPoint x="360" y="795" />
            </Array>
          </mxGeometry>
        </mxCell>
        <mxCell id="KEql7jWGaHE8NjSN0G64-2" style="edgeStyle=orthogonalEdgeStyle;rounded=1;orthogonalLoop=1;jettySize=auto;html=1;exitX=0.25;exitY=1;exitDx=0;exitDy=0;entryX=1;entryY=0.5;entryDx=0;entryDy=0;" edge="1" parent="1" source="e3ec-eq9dA1Ml-wuRT6C-6" target="KEql7jWGaHE8NjSN0G64-1">
          <mxGeometry relative="1" as="geometry" />
        </mxCell>
        <mxCell id="KEql7jWGaHE8NjSN0G64-7" style="edgeStyle=orthogonalEdgeStyle;rounded=1;orthogonalLoop=1;jettySize=auto;html=1;exitX=0.25;exitY=0;exitDx=0;exitDy=0;entryX=1;entryY=0.5;entryDx=0;entryDy=0;" edge="1" parent="1" source="e3ec-eq9dA1Ml-wuRT6C-6" target="KEql7jWGaHE8NjSN0G64-6">
          <mxGeometry relative="1" as="geometry" />
        </mxCell>
        <mxCell id="KEql7jWGaHE8NjSN0G64-9" style="edgeStyle=orthogonalEdgeStyle;rounded=1;orthogonalLoop=1;jettySize=auto;html=1;exitX=0.25;exitY=0;exitDx=0;exitDy=0;entryX=1;entryY=0.5;entryDx=0;entryDy=0;" edge="1" parent="1" source="e3ec-eq9dA1Ml-wuRT6C-6" target="KEql7jWGaHE8NjSN0G64-8">
          <mxGeometry relative="1" as="geometry" />
        </mxCell>
        <mxCell id="e3ec-eq9dA1Ml-wuRT6C-6" value="&lt;h1&gt;&lt;font face=&quot;source code pro&quot;&gt;Patient&lt;/font&gt;&lt;/h1&gt;" style="whiteSpace=wrap;html=1;fontFamily=Verdana;rounded=1;labelBorderColor=none;shadow=1;" parent="1" vertex="1">
          <mxGeometry x="300" y="300" width="120" height="60" as="geometry" />
        </mxCell>
        <mxCell id="ll4WmkZaG97imKkFr46g-47" style="edgeStyle=orthogonalEdgeStyle;rounded=1;orthogonalLoop=1;jettySize=auto;html=1;exitX=0.5;exitY=1;exitDx=0;exitDy=0;entryX=1;entryY=0.5;entryDx=0;entryDy=0;endArrow=none;endFill=0;" parent="1" source="e3ec-eq9dA1Ml-wuRT6C-10" target="ll4WmkZaG97imKkFr46g-44" edge="1">
          <mxGeometry relative="1" as="geometry" />
        </mxCell>
        <mxCell id="ll4WmkZaG97imKkFr46g-84" style="edgeStyle=orthogonalEdgeStyle;rounded=1;orthogonalLoop=1;jettySize=auto;html=1;exitX=1;exitY=0.5;exitDx=0;exitDy=0;entryX=0;entryY=0.5;entryDx=0;entryDy=0;" parent="1" source="e3ec-eq9dA1Ml-wuRT6C-10" target="ll4WmkZaG97imKkFr46g-81" edge="1">
          <mxGeometry relative="1" as="geometry">
            <Array as="points">
              <mxPoint x="670" y="330" />
              <mxPoint x="670" y="375" />
              <mxPoint x="750" y="375" />
              <mxPoint x="750" y="455" />
            </Array>
          </mxGeometry>
        </mxCell>
        <mxCell id="ll4WmkZaG97imKkFr46g-94" style="edgeStyle=orthogonalEdgeStyle;rounded=1;orthogonalLoop=1;jettySize=auto;html=1;exitX=0.75;exitY=1;exitDx=0;exitDy=0;" parent="1" source="e3ec-eq9dA1Ml-wuRT6C-10" target="ll4WmkZaG97imKkFr46g-93" edge="1">
          <mxGeometry relative="1" as="geometry" />
        </mxCell>
        <mxCell id="e3ec-eq9dA1Ml-wuRT6C-10" value="&lt;h1&gt;&lt;font face=&quot;source code pro&quot;&gt;Doctor&lt;/font&gt;&lt;/h1&gt;" style="rounded=1;whiteSpace=wrap;html=1;fontFamily=Verdana;labelBorderColor=none;shadow=1;" parent="1" vertex="1">
          <mxGeometry x="510" y="300" width="120" height="60" as="geometry" />
        </mxCell>
        <mxCell id="ll4WmkZaG97imKkFr46g-83" style="edgeStyle=orthogonalEdgeStyle;rounded=1;orthogonalLoop=1;jettySize=auto;html=1;exitX=1;exitY=1;exitDx=0;exitDy=0;" parent="1" source="e3ec-eq9dA1Ml-wuRT6C-13" target="ll4WmkZaG97imKkFr46g-81" edge="1">
          <mxGeometry relative="1" as="geometry" />
        </mxCell>
        <mxCell id="e3ec-eq9dA1Ml-wuRT6C-13" value="&lt;h1&gt;&lt;font face=&quot;source code pro&quot;&gt;Nurse&lt;/font&gt;&lt;/h1&gt;" style="whiteSpace=wrap;html=1;fontFamily=Verdana;rounded=1;labelBorderColor=none;shadow=1;" parent="1" vertex="1">
          <mxGeometry x="690" y="300" width="120" height="60" as="geometry" />
        </mxCell>
        <mxCell id="ll4WmkZaG97imKkFr46g-96" style="edgeStyle=orthogonalEdgeStyle;rounded=1;orthogonalLoop=1;jettySize=auto;html=1;exitX=0;exitY=0.5;exitDx=0;exitDy=0;" parent="1" source="e3ec-eq9dA1Ml-wuRT6C-15" edge="1">
          <mxGeometry relative="1" as="geometry">
            <mxPoint x="230" y="595" as="targetPoint" />
          </mxGeometry>
        </mxCell>
        <mxCell id="ll4WmkZaG97imKkFr46g-100" style="edgeStyle=orthogonalEdgeStyle;rounded=1;orthogonalLoop=1;jettySize=auto;html=1;exitX=0;exitY=1;exitDx=0;exitDy=0;entryX=0.5;entryY=0;entryDx=0;entryDy=0;" parent="1" source="e3ec-eq9dA1Ml-wuRT6C-15" target="ll4WmkZaG97imKkFr46g-101" edge="1">
          <mxGeometry relative="1" as="geometry">
            <mxPoint x="240" y="665" as="targetPoint" />
          </mxGeometry>
        </mxCell>
        <mxCell id="e3ec-eq9dA1Ml-wuRT6C-15" value="&lt;h1&gt;&lt;b&gt;&lt;font face=&quot;source code pro&quot;&gt;Room&lt;/font&gt;&lt;/b&gt;&lt;/h1&gt;" style="rounded=1;whiteSpace=wrap;html=1;labelBorderColor=none;" parent="1" vertex="1">
          <mxGeometry x="300" y="565" width="120" height="60" as="geometry" />
        </mxCell>
        <mxCell id="ll4WmkZaG97imKkFr46g-58" style="edgeStyle=orthogonalEdgeStyle;rounded=0;orthogonalLoop=1;jettySize=auto;html=1;exitX=0;exitY=0.5;exitDx=0;exitDy=0;entryX=1;entryY=0.5;entryDx=0;entryDy=0;" parent="1" source="e3ec-eq9dA1Ml-wuRT6C-16" target="e3ec-eq9dA1Ml-wuRT6C-15" edge="1">
          <mxGeometry relative="1" as="geometry" />
        </mxCell>
        <mxCell id="ll4WmkZaG97imKkFr46g-63" value="" style="edgeStyle=orthogonalEdgeStyle;rounded=0;orthogonalLoop=1;jettySize=auto;html=1;" parent="1" source="e3ec-eq9dA1Ml-wuRT6C-16" target="ll4WmkZaG97imKkFr46g-62" edge="1">
          <mxGeometry relative="1" as="geometry" />
        </mxCell>
        <mxCell id="ll4WmkZaG97imKkFr46g-70" style="edgeStyle=orthogonalEdgeStyle;rounded=1;orthogonalLoop=1;jettySize=auto;html=1;exitX=1;exitY=0.5;exitDx=0;exitDy=0;entryX=0;entryY=0.5;entryDx=0;entryDy=0;" parent="1" source="e3ec-eq9dA1Ml-wuRT6C-16" target="ll4WmkZaG97imKkFr46g-71" edge="1">
          <mxGeometry relative="1" as="geometry">
            <mxPoint x="1009.9999999999995" y="625" as="targetPoint" />
          </mxGeometry>
        </mxCell>
        <mxCell id="ll4WmkZaG97imKkFr46g-72" style="edgeStyle=orthogonalEdgeStyle;rounded=1;orthogonalLoop=1;jettySize=auto;html=1;exitX=0.75;exitY=1;exitDx=0;exitDy=0;entryX=0;entryY=0.5;entryDx=0;entryDy=0;" parent="1" source="e3ec-eq9dA1Ml-wuRT6C-16" target="ll4WmkZaG97imKkFr46g-66" edge="1">
          <mxGeometry relative="1" as="geometry">
            <Array as="points">
              <mxPoint x="930" y="625" />
              <mxPoint x="930" y="689" />
            </Array>
          </mxGeometry>
        </mxCell>
        <mxCell id="ll4WmkZaG97imKkFr46g-74" style="edgeStyle=orthogonalEdgeStyle;rounded=1;orthogonalLoop=1;jettySize=auto;html=1;exitX=1;exitY=0.25;exitDx=0;exitDy=0;entryX=0;entryY=0.5;entryDx=0;entryDy=0;" parent="1" source="e3ec-eq9dA1Ml-wuRT6C-16" target="ll4WmkZaG97imKkFr46g-68" edge="1">
          <mxGeometry relative="1" as="geometry" />
        </mxCell>
        <mxCell id="ll4WmkZaG97imKkFr46g-75" style="edgeStyle=orthogonalEdgeStyle;rounded=1;orthogonalLoop=1;jettySize=auto;html=1;exitX=0.25;exitY=1;exitDx=0;exitDy=0;" parent="1" source="e3ec-eq9dA1Ml-wuRT6C-16" target="ll4WmkZaG97imKkFr46g-76" edge="1">
          <mxGeometry relative="1" as="geometry">
            <mxPoint x="730" y="685" as="targetPoint" />
          </mxGeometry>
        </mxCell>
        <mxCell id="ll4WmkZaG97imKkFr46g-77" style="edgeStyle=orthogonalEdgeStyle;rounded=1;orthogonalLoop=1;jettySize=auto;html=1;exitX=1;exitY=0;exitDx=0;exitDy=0;entryX=0.5;entryY=1;entryDx=0;entryDy=0;" parent="1" target="ll4WmkZaG97imKkFr46g-78" edge="1">
          <mxGeometry relative="1" as="geometry">
            <mxPoint x="1050.0599999999995" y="515" as="targetPoint" />
            <mxPoint x="915.0600000000004" y="575" as="sourcePoint" />
            <Array as="points">
              <mxPoint x="915" y="525" />
              <mxPoint x="1050" y="525" />
            </Array>
          </mxGeometry>
        </mxCell>
        <mxCell id="e3ec-eq9dA1Ml-wuRT6C-16" value="&lt;h1&gt;&lt;b&gt;&lt;font face=&quot;source code pro&quot;&gt;Hospital&lt;/font&gt;&lt;/b&gt;&lt;/h1&gt;" style="rounded=1;whiteSpace=wrap;html=1;labelBorderColor=none;" parent="1" vertex="1">
          <mxGeometry x="775" y="565" width="140" height="60" as="geometry" />
        </mxCell>
        <mxCell id="ll4WmkZaG97imKkFr46g-4" value="&lt;h1&gt;D&lt;/h1&gt;" style="ellipse;whiteSpace=wrap;html=1;labelBorderColor=none;rounded=1;" parent="1" vertex="1">
          <mxGeometry x="560" y="180" width="60" height="50" as="geometry" />
        </mxCell>
        <mxCell id="ll4WmkZaG97imKkFr46g-18" value="&lt;h3&gt;&lt;b&gt;&lt;font face=&quot;source code pro&quot;&gt;PersonID&lt;/font&gt;&lt;/b&gt;&lt;/h3&gt;" style="ellipse;whiteSpace=wrap;html=1;fontFamily=Verdana;rounded=1;labelBorderColor=none;shadow=1;" parent="1" vertex="1">
          <mxGeometry x="210" y="100" width="90" height="60" as="geometry" />
        </mxCell>
        <mxCell id="ll4WmkZaG97imKkFr46g-21" value="&lt;h3&gt;&lt;b&gt;&lt;font face=&quot;source code pro&quot;&gt;PName&lt;/font&gt;&lt;/b&gt;&lt;/h3&gt;" style="ellipse;whiteSpace=wrap;html=1;fontFamily=Verdana;rounded=1;labelBorderColor=none;shadow=1;" parent="1" vertex="1">
          <mxGeometry x="320" y="25" width="90" height="60" as="geometry" />
        </mxCell>
        <mxCell id="ll4WmkZaG97imKkFr46g-23" value="&lt;h3&gt;&lt;b&gt;&lt;font face=&quot;source code pro&quot;&gt;PAddress&lt;/font&gt;&lt;/b&gt;&lt;/h3&gt;" style="ellipse;whiteSpace=wrap;html=1;fontFamily=Verdana;rounded=1;labelBorderColor=none;shadow=1;" parent="1" vertex="1">
          <mxGeometry x="795" y="25" width="90" height="60" as="geometry" />
        </mxCell>
        <mxCell id="ll4WmkZaG97imKkFr46g-27" value="&lt;b&gt;&lt;font style=&quot;font-size: 14px;&quot; face=&quot;source code pro&quot;&gt;PPhone&lt;/font&gt;&lt;/b&gt;" style="ellipse;shape=doubleEllipse;margin=3;whiteSpace=wrap;html=1;align=center;labelBorderColor=none;rounded=1;" parent="1" vertex="1">
          <mxGeometry x="435" y="25" width="100" height="60" as="geometry" />
        </mxCell>
        <mxCell id="ll4WmkZaG97imKkFr46g-30" value="&lt;h3&gt;&lt;b&gt;&lt;font face=&quot;source code pro&quot;&gt;PGender&lt;/font&gt;&lt;/b&gt;&lt;/h3&gt;" style="ellipse;whiteSpace=wrap;html=1;fontFamily=Verdana;rounded=1;labelBorderColor=none;shadow=1;" parent="1" vertex="1">
          <mxGeometry x="860" y="100" width="90" height="60" as="geometry" />
        </mxCell>
        <mxCell id="ll4WmkZaG97imKkFr46g-32" value="&lt;h3&gt;&lt;b&gt;&lt;font face=&quot;source code pro&quot;&gt;PBdate&lt;/font&gt;&lt;/b&gt;&lt;/h3&gt;" style="ellipse;whiteSpace=wrap;html=1;fontFamily=Verdana;rounded=1;labelBorderColor=none;shadow=1;" parent="1" vertex="1">
          <mxGeometry x="680" y="25" width="90" height="60" as="geometry" />
        </mxCell>
        <mxCell id="ll4WmkZaG97imKkFr46g-37" value="&lt;h3&gt;&lt;font face=&quot;source code pro&quot;&gt;Description&lt;/font&gt;&lt;/h3&gt;" style="ellipse;whiteSpace=wrap;html=1;fontFamily=Verdana;rounded=1;labelBorderColor=none;shadow=1;" parent="1" vertex="1">
          <mxGeometry x="90" y="307.5" width="110" height="45" as="geometry" />
        </mxCell>
        <mxCell id="ll4WmkZaG97imKkFr46g-39" value="&lt;h3&gt;&lt;font face=&quot;source code pro&quot;&gt;Disease&lt;/font&gt;&lt;/h3&gt;" style="ellipse;whiteSpace=wrap;html=1;fontFamily=Verdana;rounded=1;labelBorderColor=none;shadow=1;" parent="1" vertex="1">
          <mxGeometry x="90" y="365" width="110" height="45" as="geometry" />
        </mxCell>
        <mxCell id="ll4WmkZaG97imKkFr46g-41" value="&lt;h3&gt;&lt;font face=&quot;source code pro&quot;&gt;Treatment&lt;/font&gt;&lt;/h3&gt;" style="ellipse;whiteSpace=wrap;html=1;fontFamily=Verdana;rounded=1;labelBorderColor=none;shadow=1;" parent="1" vertex="1">
          <mxGeometry x="90" y="425" width="110" height="45" as="geometry" />
        </mxCell>
        <mxCell id="ll4WmkZaG97imKkFr46g-48" style="edgeStyle=orthogonalEdgeStyle;rounded=1;orthogonalLoop=1;jettySize=auto;html=1;exitX=0;exitY=0.5;exitDx=0;exitDy=0;entryX=0.5;entryY=1;entryDx=0;entryDy=0;endArrow=none;endFill=0;" parent="1" source="ll4WmkZaG97imKkFr46g-44" target="e3ec-eq9dA1Ml-wuRT6C-6" edge="1">
          <mxGeometry relative="1" as="geometry" />
        </mxCell>
        <mxCell id="ll4WmkZaG97imKkFr46g-44" value="&lt;h2&gt;&lt;font face=&quot;source code pro&quot;&gt;Treat&lt;/font&gt;&lt;/h2&gt;" style="shape=rhombus;perimeter=rhombusPerimeter;whiteSpace=wrap;html=1;align=center;" parent="1" vertex="1">
          <mxGeometry x="400" y="418" width="120" height="60" as="geometry" />
        </mxCell>
        <mxCell id="ll4WmkZaG97imKkFr46g-49" value="1" style="text;html=1;align=center;verticalAlign=middle;resizable=0;points=[];autosize=1;strokeColor=none;fillColor=none;fontStyle=1" parent="1" vertex="1">
          <mxGeometry x="535" y="413" width="30" height="30" as="geometry" />
        </mxCell>
        <mxCell id="ll4WmkZaG97imKkFr46g-50" value="M" style="text;html=1;align=center;verticalAlign=middle;resizable=0;points=[];autosize=1;strokeColor=none;fillColor=none;fontStyle=1" parent="1" vertex="1">
          <mxGeometry x="365" y="413" width="30" height="30" as="geometry" />
        </mxCell>
        <mxCell id="ll4WmkZaG97imKkFr46g-56" value="&lt;b&gt;&lt;font style=&quot;font-size: 14px;&quot; face=&quot;source code pro&quot;&gt;manage&lt;/font&gt;&lt;/b&gt;" style="shape=rhombus;perimeter=rhombusPerimeter;whiteSpace=wrap;html=1;align=center;" parent="1" vertex="1">
          <mxGeometry x="540" y="565" width="120" height="60" as="geometry" />
        </mxCell>
        <mxCell id="ll4WmkZaG97imKkFr46g-59" value="1" style="text;html=1;align=center;verticalAlign=middle;resizable=0;points=[];autosize=1;strokeColor=none;fillColor=none;fontStyle=1" parent="1" vertex="1">
          <mxGeometry x="745" y="565" width="30" height="30" as="geometry" />
        </mxCell>
        <mxCell id="ll4WmkZaG97imKkFr46g-60" value="&lt;b&gt;M&lt;/b&gt;" style="text;html=1;align=center;verticalAlign=middle;resizable=0;points=[];autosize=1;strokeColor=none;fillColor=none;" parent="1" vertex="1">
          <mxGeometry x="430" y="565" width="30" height="30" as="geometry" />
        </mxCell>
        <mxCell id="ll4WmkZaG97imKkFr46g-62" value="&lt;b&gt;HID&lt;/b&gt;" style="ellipse;whiteSpace=wrap;html=1;rounded=1;labelBorderColor=none;" parent="1" vertex="1">
          <mxGeometry x="795" y="665" width="100" height="48" as="geometry" />
        </mxCell>
        <mxCell id="ll4WmkZaG97imKkFr46g-66" value="&lt;b&gt;HPhone&lt;/b&gt;" style="ellipse;whiteSpace=wrap;html=1;rounded=1;labelBorderColor=none;" parent="1" vertex="1">
          <mxGeometry x="1000" y="665" width="100" height="48" as="geometry" />
        </mxCell>
        <mxCell id="ll4WmkZaG97imKkFr46g-68" value="&lt;b&gt;HWeb&lt;/b&gt;" style="ellipse;whiteSpace=wrap;html=1;rounded=1;labelBorderColor=none;" parent="1" vertex="1">
          <mxGeometry x="1000" y="547" width="100" height="48" as="geometry" />
        </mxCell>
        <mxCell id="ll4WmkZaG97imKkFr46g-71" value="&lt;b&gt;HAddress&lt;/b&gt;" style="ellipse;whiteSpace=wrap;html=1;rounded=1;labelBorderColor=none;" parent="1" vertex="1">
          <mxGeometry x="1000" y="605" width="100" height="48" as="geometry" />
        </mxCell>
        <mxCell id="ll4WmkZaG97imKkFr46g-76" value="&lt;b&gt;HName&lt;/b&gt;" style="ellipse;whiteSpace=wrap;html=1;rounded=1;labelBorderColor=none;" parent="1" vertex="1">
          <mxGeometry x="670" y="665" width="100" height="48" as="geometry" />
        </mxCell>
        <mxCell id="ll4WmkZaG97imKkFr46g-78" value="HEmail" style="ellipse;whiteSpace=wrap;html=1;rounded=1;labelBorderColor=none;fontStyle=1" parent="1" vertex="1">
          <mxGeometry x="1000" y="478" width="100" height="50" as="geometry" />
        </mxCell>
        <mxCell id="ll4WmkZaG97imKkFr46g-80" value="&lt;h3&gt;&lt;b&gt;&lt;font face=&quot;source code pro&quot;&gt;PEmail&lt;/font&gt;&lt;/b&gt;&lt;/h3&gt;" style="ellipse;whiteSpace=wrap;html=1;fontFamily=Verdana;rounded=1;labelBorderColor=none;shadow=1;" parent="1" vertex="1">
          <mxGeometry x="565" y="25" width="90" height="60" as="geometry" />
        </mxCell>
        <mxCell id="ll4WmkZaG97imKkFr46g-85" style="edgeStyle=orthogonalEdgeStyle;rounded=0;orthogonalLoop=1;jettySize=auto;html=1;exitX=0.5;exitY=1;exitDx=0;exitDy=0;entryX=0.428;entryY=-0.006;entryDx=0;entryDy=0;entryPerimeter=0;" parent="1" source="ll4WmkZaG97imKkFr46g-81" target="e3ec-eq9dA1Ml-wuRT6C-16" edge="1">
          <mxGeometry relative="1" as="geometry">
            <Array as="points" />
          </mxGeometry>
        </mxCell>
        <mxCell id="ll4WmkZaG97imKkFr46g-81" value="&lt;font face=&quot;source code pro&quot;&gt;&lt;b&gt;Works At&lt;/b&gt;&lt;/font&gt;" style="shape=rhombus;perimeter=rhombusPerimeter;whiteSpace=wrap;html=1;align=center;" parent="1" vertex="1">
          <mxGeometry x="775" y="425" width="120" height="60" as="geometry" />
        </mxCell>
        <mxCell id="ll4WmkZaG97imKkFr46g-86" value="M" style="text;html=1;align=center;verticalAlign=middle;resizable=0;points=[];autosize=1;strokeColor=none;fillColor=none;fontStyle=1" parent="1" vertex="1">
          <mxGeometry x="905" y="425" width="30" height="30" as="geometry" />
        </mxCell>
        <mxCell id="ll4WmkZaG97imKkFr46g-88" value="K" style="text;html=1;align=center;verticalAlign=middle;resizable=0;points=[];autosize=1;strokeColor=none;fillColor=none;fontStyle=1" parent="1" vertex="1">
          <mxGeometry x="800" y="395" width="30" height="30" as="geometry" />
        </mxCell>
        <mxCell id="ll4WmkZaG97imKkFr46g-89" value="N" style="text;html=1;align=center;verticalAlign=middle;resizable=0;points=[];autosize=1;strokeColor=none;fillColor=none;fontStyle=1" parent="1" vertex="1">
          <mxGeometry x="745" y="425" width="30" height="30" as="geometry" />
        </mxCell>
        <mxCell id="ll4WmkZaG97imKkFr46g-90" value="M" style="text;html=1;align=center;verticalAlign=middle;resizable=0;points=[];autosize=1;strokeColor=none;fillColor=none;fontStyle=1" parent="1" vertex="1">
          <mxGeometry x="810" y="478" width="30" height="30" as="geometry" />
        </mxCell>
        <mxCell id="ll4WmkZaG97imKkFr46g-93" value="&lt;h3&gt;&lt;font style=&quot;font-size: 10px;&quot; face=&quot;source code pro&quot;&gt;Specialization&lt;/font&gt;&lt;/h3&gt;" style="ellipse;whiteSpace=wrap;html=1;fontFamily=Verdana;rounded=1;labelBorderColor=none;shadow=1;" parent="1" vertex="1">
          <mxGeometry x="610" y="433" width="110" height="45" as="geometry" />
        </mxCell>
        <mxCell id="ll4WmkZaG97imKkFr46g-97" value="&lt;h3&gt;&lt;font face=&quot;source code pro&quot;&gt;RID&lt;/font&gt;&lt;/h3&gt;" style="ellipse;whiteSpace=wrap;html=1;fontFamily=Verdana;rounded=1;labelBorderColor=none;shadow=1;" parent="1" vertex="1">
          <mxGeometry x="120" y="572.5" width="110" height="45" as="geometry" />
        </mxCell>
        <mxCell id="ll4WmkZaG97imKkFr46g-101" value="&lt;h3&gt;&lt;font face=&quot;source code pro&quot;&gt;RType&lt;/font&gt;&lt;/h3&gt;" style="ellipse;whiteSpace=wrap;html=1;fontFamily=Verdana;rounded=1;labelBorderColor=none;shadow=1;" parent="1" vertex="1">
          <mxGeometry x="190" y="665" width="110" height="45" as="geometry" />
        </mxCell>
        <mxCell id="ll4WmkZaG97imKkFr46g-119" style="edgeStyle=orthogonalEdgeStyle;rounded=0;orthogonalLoop=1;jettySize=auto;html=1;exitX=0.5;exitY=1;exitDx=0;exitDy=0;entryX=0;entryY=0.5;entryDx=0;entryDy=0;" parent="1" source="ll4WmkZaG97imKkFr46g-104" target="ll4WmkZaG97imKkFr46g-114" edge="1">
          <mxGeometry relative="1" as="geometry">
            <Array as="points">
              <mxPoint x="50" y="840" />
              <mxPoint x="120" y="840" />
              <mxPoint x="120" y="825" />
            </Array>
          </mxGeometry>
        </mxCell>
        <mxCell id="ll4WmkZaG97imKkFr46g-104" value="&lt;h2&gt;&lt;font style=&quot;font-size: 14px;&quot; face=&quot;source code pro&quot;&gt;Register&lt;/font&gt;&lt;/h2&gt;" style="shape=rhombus;perimeter=rhombusPerimeter;whiteSpace=wrap;html=1;align=center;" parent="1" vertex="1">
          <mxGeometry y="765" width="100" height="60" as="geometry" />
        </mxCell>
        <mxCell id="ll4WmkZaG97imKkFr46g-108" value="1" style="text;html=1;align=center;verticalAlign=middle;resizable=0;points=[];autosize=1;strokeColor=none;fillColor=none;fontStyle=1" parent="1" vertex="1">
          <mxGeometry x="90" y="795" width="30" height="30" as="geometry" />
        </mxCell>
        <mxCell id="ll4WmkZaG97imKkFr46g-110" value="1" style="text;html=1;align=center;verticalAlign=middle;resizable=0;points=[];autosize=1;strokeColor=none;fillColor=none;fontStyle=1" parent="1" vertex="1">
          <mxGeometry x="20" y="735" width="30" height="30" as="geometry" />
        </mxCell>
        <mxCell id="ll4WmkZaG97imKkFr46g-114" value="&lt;h3&gt;&lt;font face=&quot;source code pro&quot;&gt;RTime&lt;/font&gt;&lt;/h3&gt;" style="ellipse;whiteSpace=wrap;html=1;fontFamily=Verdana;rounded=1;labelBorderColor=none;shadow=1;" parent="1" vertex="1">
          <mxGeometry x="130" y="810" width="90" height="30" as="geometry" />
        </mxCell>
        <mxCell id="ll4WmkZaG97imKkFr46g-122" value="" style="edgeStyle=orthogonalEdgeStyle;rounded=1;orthogonalLoop=1;jettySize=auto;html=1;" parent="1" source="ll4WmkZaG97imKkFr46g-120" target="ll4WmkZaG97imKkFr46g-121" edge="1">
          <mxGeometry relative="1" as="geometry" />
        </mxCell>
        <mxCell id="ll4WmkZaG97imKkFr46g-125" style="edgeStyle=orthogonalEdgeStyle;rounded=1;orthogonalLoop=1;jettySize=auto;html=1;exitX=0.5;exitY=1;exitDx=0;exitDy=0;" parent="1" source="ll4WmkZaG97imKkFr46g-120" target="ll4WmkZaG97imKkFr46g-124" edge="1">
          <mxGeometry relative="1" as="geometry" />
        </mxCell>
        <mxCell id="ll4WmkZaG97imKkFr46g-120" value="&lt;b&gt;&lt;font style=&quot;font-size: 18px;&quot; face=&quot;source code pro&quot;&gt;Auth.&lt;/font&gt;&lt;/b&gt;" style="rounded=1;whiteSpace=wrap;html=1;" parent="1" vertex="1">
          <mxGeometry x="-225" y="25" width="120" height="60" as="geometry" />
        </mxCell>
        <mxCell id="ll4WmkZaG97imKkFr46g-121" value="&lt;b&gt;ID&lt;/b&gt;" style="ellipse;whiteSpace=wrap;html=1;rounded=1;" parent="1" vertex="1">
          <mxGeometry x="-315" y="172.5" width="100" height="45" as="geometry" />
        </mxCell>
        <mxCell id="ll4WmkZaG97imKkFr46g-124" value="&lt;b&gt;Password&lt;/b&gt;" style="ellipse;whiteSpace=wrap;html=1;rounded=1;" parent="1" vertex="1">
          <mxGeometry x="-115" y="172.5" width="100" height="45" as="geometry" />
        </mxCell>
        <mxCell id="ll4WmkZaG97imKkFr46g-127" value="&lt;font style=&quot;&quot;&gt;&lt;font style=&quot;&quot; face=&quot;source code pro&quot;&gt;&lt;u style=&quot;font-size: 24px; font-weight: bold;&quot;&gt;Hosptial Managment System&lt;br&gt;&lt;/u&gt;&lt;br&gt;&lt;br&gt;&lt;font style=&quot;font-size: 18px;&quot;&gt;&lt;b&gt;Patients have IDs and personal details. &lt;br&gt;Doctors treat them; each has a unique ID. &lt;br&gt;Admitted patients get room numbers; bills depend on treatment duration. &lt;br&gt;Nurses and ward boys help with care and maintenance.&lt;/b&gt;&lt;/font&gt;&lt;/font&gt;&lt;/font&gt;&lt;font style=&quot;font-weight: bold; font-size: 24px;&quot;&gt;&lt;br&gt;&lt;/font&gt;" style="rounded=1;whiteSpace=wrap;html=1;" parent="1" vertex="1">
          <mxGeometry x="-327.5" y="262" width="325" height="327" as="geometry" />
        </mxCell>
        <mxCell id="ll4WmkZaG97imKkFr46g-128" value="" style="shape=image;verticalLabelPosition=bottom;labelBackgroundColor=default;verticalAlign=top;aspect=fixed;imageAspect=0;image=https://cdn-icons-png.flaticon.com/512/4320/4320350.png;" parent="1" vertex="1">
          <mxGeometry x="-259.75" y="617.5" width="189.5" height="189.5" as="geometry" />
        </mxCell>
        <mxCell id="ll4WmkZaG97imKkFr46g-133" value="" style="shape=image;verticalLabelPosition=bottom;labelBackgroundColor=default;verticalAlign=top;aspect=fixed;imageAspect=0;image=https://cdn-icons-png.flaticon.com/512/33/33777.png;clipPath=inset(14.67% 0.33% 15.33% 0.33%);" parent="1" vertex="1">
          <mxGeometry x="449.53" y="730" width="170.47" height="120.13" as="geometry" />
        </mxCell>
        <mxCell id="KEql7jWGaHE8NjSN0G64-1" value="&lt;h3&gt;&lt;font face=&quot;source code pro&quot;&gt;Treatment_Cost&lt;/font&gt;&lt;/h3&gt;" style="ellipse;whiteSpace=wrap;html=1;fontFamily=Verdana;rounded=1;labelBorderColor=none;shadow=1;" vertex="1" parent="1">
          <mxGeometry x="75" y="490" width="140" height="45" as="geometry" />
        </mxCell>
        <mxCell id="KEql7jWGaHE8NjSN0G64-6" value="&lt;h3&gt;&lt;font face=&quot;source code pro&quot;&gt;Bed_Cost&lt;/font&gt;&lt;/h3&gt;" style="ellipse;whiteSpace=wrap;html=1;fontFamily=Verdana;rounded=1;labelBorderColor=none;shadow=1;" vertex="1" parent="1">
          <mxGeometry x="75" y="217.5" width="140" height="45" as="geometry" />
        </mxCell>
        <mxCell id="KEql7jWGaHE8NjSN0G64-8" value="&lt;h3&gt;&lt;font face=&quot;source code pro&quot;&gt;Total_Cost&lt;/font&gt;&lt;/h3&gt;" style="ellipse;whiteSpace=wrap;html=1;fontFamily=Verdana;rounded=1;labelBorderColor=none;shadow=1;" vertex="1" parent="1">
          <mxGeometry x="75" y="160" width="140" height="45" as="geometry" />
        </mxCell>
      </root>
    </mxGraphModel>
  </diagram>
</mxfile>
